# xmcd CD database file
#
# Track frame offsets:
#	150
#	13367
#	28107
#	44052
#	58485
#	70655
#	82212
#	94482
#	107040
#	127037
#	136922
#	151672
#	164487
#
# Disc length: 2377 seconds
#
# Revision: 1
# Processed by: cddbd v1.5.1PL0 Copyright (c) Steve Scherf et al.
# Submitted via: CDex 1.50
#
DISCID=c109470d
DTITLE=David Matthews and His Orchestra - LEGENDZ JAZZ VOL.1
DYEAR=1900
DGENRE=Anime
TTITLE0=OPENING ACT
TTITLE1=BB MY LOVE
TTITLE2=LEGENDZ THE JAZZ 〜Quintet ver.
TTITLE3=SHIRON 〜Quintet ver.
TTITLE4=風のレジェンズ 〜Piano solo ver.
TTITLE5=OPENING ACT 〜Quintet ver.
TTITLE6=SHIRON
TTITLE7=LEGENDZ THE JAZZ 〜Trio ver.
TTITLE8=For JJ
TTITLE9=空色の指先 〜Piano solo ver.
TTITLE10=SHIRON 〜Trio ver.
TTITLE11=OPENING ACT 〜Quintet ver. (take2)
TTITLE12=LEGENDZ THE JAZZ
EXTD=
EXTT0=
EXTT1=
EXTT2=
EXTT3=
EXTT4=
EXTT5=
EXTT6=
EXTT7=
EXTT8=
EXTT9=
EXTT10=
EXTT11=
EXTT12=
PLAYORDER=
